<svg xmlns="http://www.w3.org/2000/svg" viewBox="0 0 512 512" fill="#4a90d9">
  <path d="M160.8 96.5c14 17 31 30.9 49.5 42.2c25.9 15.8 53.7 25.9 77.7 31.6V138.8C265.8 108.5 250 71.5 248.6 28c-.4-11.3-7.5-21.5-18.4-24.4c-7.6-2-15.8-.2-21 5.8c-13.3 15.4-32.7 44.6-48.4 87.2zM320 144v30.6l0 0v1.3l0 0 0 0v32.1c-1.4 0-2.8 0-4.2-.1c-23.2-.9-47.8-6.8-69.7-18.2c-16.4-8.6-33.8-20.7-49.3-38.1c-23.3 58.4-33.6 116.3-35.5 160.9c28.8 9.6 56.1 26.3 81.1 52.8l0 0c25 26.5 41.4 57.2 52.2 89.5c29.6-4.9 59.9-17.2 88.7-40.3c43.3-34.8 75.5-84 90.1-142.2c-9.8-12.6-23.3-23.6-39.1-30.5c-13.1-5.8-26.7-9-39.6-9.5c-8.5-.3-16.6 .6-23.3 2.4c-4.4 1.2-7.3-4.6-4.3-8.1c14.6-16.6 43.2-38.9 91.1-39.5c30.6-.4 58.4 10.3 76.6 22.5c1.8-5 3.4-10.1 4.8-15.2c6.3-22.7 4.8-47.4-6-70.7c-22.9-49.6-76.6-66.5-117-52.8c-18.8 6.3-31 17-41 30.5c-7.2 9.6-17.3 15.2-28 15.7c-9.9 .4-19.8-3.9-26.2-12.5c-8-10.6-10.5-23.3-9.7-36c.8-14.4 6.4-28.5 12.9-40.2c-14.4-1.6-29.6 .7-44.4 7.6c-18.4 8.6-33.7 23.3-43.3 43.3c-13.2 27.6-13.2 59.1-2 90.6z"/>
</svg>
